<svg xmlns="http://www.w3.org/2000/svg" version="1.1" id="Layer_1" x="0" y="0" viewBox="0 0 512 512" xml:space="preserve"><path d="M441.971 252.99c-5.551-.227-10.201 4.116-10.409 9.656a178.594 178.594 0 01-.212 4.288c-.342 5.534 3.867 10.297 9.401 10.64.211.014.421.02.628.02 5.262 0 9.682-4.097 10.011-9.42.098-1.586.177-3.178.237-4.775.208-5.54-4.115-10.201-9.656-10.409z"/><path d="M496.661 168.359a10.021 10.021 0 00-5.618-14.107c-12.655-29.217-30.833-56.081-54.025-79.273C388.667 26.628 324.38 0 256 0S123.333 26.628 74.981 74.981 0 187.62 0 256c0 36.387 7.571 71.602 21.914 103.886-4.983 5.535-7.711 12.619-7.711 20.124 0 8.045 3.133 15.608 8.821 21.296 5.872 5.872 13.584 8.806 21.296 8.806 2.238 0 4.474-.255 6.668-.75a258.824 258.824 0 0023.993 27.656 258.304 258.304 0 0040.174 32.81c-3.494 10.487-1.08 22.526 7.252 30.86 5.872 5.872 13.584 8.806 21.296 8.806s15.425-2.935 21.296-8.806l3.856-3.856C196.428 506.793 225.812 512 256 512c68.38 0 132.667-26.628 181.019-74.981C485.371 388.666 512 324.38 512 256c0-30.369-5.264-59.925-15.339-87.641zM20.078 256C20.078 125.913 125.912 20.078 256 20.078c15.249 0 30.153 1.485 44.601 4.267l-35.103 35.102c-3.927.345-7.569.788-9.498.788-107.945 0-195.765 87.82-195.765 195.765 0 19.827 2.976 38.969 8.483 57.019l-31.413 31.413C26.212 317.106 20.078 287.259 20.078 256zm200.546-120.841l.275 4.439a44.455 44.455 0 01-12.93 34.17L85.074 296.662A175.443 175.443 0 0180.313 256c0-92.917 72.51-169.205 163.915-175.283l-4.832 4.832a64.55 64.55 0 00-18.772 49.61zM37.221 387.108a9.97 9.97 0 01-2.94-7.098 9.973 9.973 0 012.94-7.099l184.945-184.944a64.548 64.548 0 0018.772-49.61l-.275-4.439a44.456 44.456 0 0112.931-34.17l69.65-69.648c.294-.293.558-.605.808-.924l1.911 1.493a233.515 233.515 0 0118.487 6.618L273.138 108.6c-3.92 3.92-3.92 10.277 0 14.198 1.96 1.96 4.53 2.94 7.099 2.94s5.139-.981 7.099-2.94l74.774-74.774a10.043 10.043 0 001.495-1.928A236.238 236.238 0 01381.929 56.6l-5.62 5.621h-.001l-74.774 74.774c-3.92 3.92-3.92 10.277 0 14.198 1.96 1.96 4.53 2.94 7.099 2.94s5.139-.981 7.099-2.94l82.941-82.942c30.728 23.407 55.557 54.168 71.846 89.64l-28.726 7.562a286.586 286.586 0 00-129.554 74.419l-41.008 41.009a38.964 38.964 0 00-11.315 30.435 18.9 18.9 0 01-5.488 14.764l-83.531 83.53a176.976 176.976 0 01-59.539-54.042l139.206-139.206c9.005-9.006 21.461-13.707 34.172-12.932l4.438.274a64.523 64.523 0 0049.61-18.772l80.12-80.12c3.92-3.92 3.92-10.277 0-14.198-3.92-3.919-10.277-3.919-14.198 0l-80.12 80.12a44.478 44.478 0 01-34.172 12.932l-4.438-.274c-18.448-1.152-36.536 5.699-49.61 18.772L51.419 387.108c-3.913 3.915-10.282 3.913-14.198 0zm31.04 11.554l28.69-28.689a197.255 197.255 0 0059.237 54.343l-29.132 29.132a237.862 237.862 0 01-58.795-54.786zm82.542 87.828c-3.915 3.916-10.284 3.914-14.198.001-3.914-3.913-3.914-10.283 0-14.197l132.019-132.018a38.964 38.964 0 0011.315-30.436 18.897 18.897 0 015.489-14.764l41.007-41.008a266.475 266.475 0 01120.468-69.199l7.496-1.974L150.803 486.49zM256 491.922c-24.818 0-48.748-3.861-71.232-11.001l32.929-32.929a195.848 195.848 0 0038.304 3.773c37.917 0 74.727-10.905 106.451-31.534 30.887-20.085 55.439-48.295 70.999-81.58 2.348-5.023.181-10.998-4.842-13.346-5.025-2.35-10.999-.181-13.346 4.842C386.423 391.83 323.909 431.686 256 431.686c-7.025 0-13.952-.424-20.762-1.235l245.679-245.678c7.138 22.484 11.005 46.41 11.005 71.226 0 130.088-105.834 235.923-235.922 235.923z"/></svg>