<svg version="1.1" id="Capa_1" xmlns="http://www.w3.org/2000/svg" x="0" y="0" width="512.013" height="512.014" viewBox="0 0 512.013 512.014" xml:space="preserve"><path d="M31.972 256.007c10.344 0 20.469-5 26.656-14.25l6.875-10.313c3.438 13.969 15.469 24.563 30.5 24.563 17.688 0 32-14.313 32-32 0 17.688 14.313 32 32 32s32-14.313 32-32c0 17.688 14.313 32 32 32s32-14.313 32-32c0 17.688 14.312 32 32 32 17.687 0 32-14.313 32-32 0 17.688 14.312 32 32 32s32-14.313 32-32c0 17.688 14.312 32 32 32 15.062 0 27.062-10.594 30.5-24.563l6.875 10.313c6.156 9.25 16.312 14.25 26.656 14.25 6.094 0 12.25-1.75 17.719-5.375 14.719-9.813 18.688-29.688 8.875-44.375l-58.625-78.25h-128v-32h32c17.688 0 32-14.313 32-32v-32c0-17.688-14.312-32-32-32h-192c-17.688 0-32 14.313-32 32v32c0 17.688 14.313 32 32 32h32v32h-128l-58.625 78.25c-9.813 14.688-5.813 34.563 8.875 44.375a31.903 31.903 0 0017.719 5.375zm280.03-232h40v24h-32v16h-8v-40zm-56 0h40v40h-40v-40zm-48 0h8v16h16v-16h8v40h-8v-16h-16v16h-8v-40zm-48 40v-8h24v-8h-24v-24h32v8h-24v8h24v24h-32zm64 32h64v32h-64v-32zm288 416h-512c0-26.5 21.5-48 48-48h416c26.5 0 48 21.5 48 48zm-416-240h-32v176h384v-176h-352zm0 144v-112h96v112h-96zm128 0v-112h192v112h-192zm-80-64c0 8.844-7.156 16-16 16s-16-7.156-16-16 7.156-16 16-16c8.844 0 16 7.156 16 16zm200-312h-24v-8h24v8zm-80-8h24v24h-24v-24z"/></svg>