<svg id="Capa_1" version="1.1" viewBox="0 0 512 512" xml:space="preserve" xmlns="http://www.w3.org/2000/svg"><path d="M507.857 227.896L397.19 147.894a10.003 10.003 0 00-10.41-.801 10.002 10.002 0 00-5.449 8.905v60.433l-94.807-68.537a10 10 0 00-15.857 8.104v60.433l-94.809-68.537a10.003 10.003 0 00-10.41-.801 10.002 10.002 0 00-5.449 8.905v70.001h-20.666L126.184 35.313A10.002 10.002 0 00116.207 26H63.793a10.002 10.002 0 00-9.977 9.313L40.666 226H10c-5.523 0-10 4.477-10 10v240c0 5.522 4.477 10 10 10h492c5.522 0 10-4.478 10-10V236a9.995 9.995 0 00-4.143-8.104zM62.094 205.999h21.34c5.521 0 10-4.478 10-10 0-5.523-4.479-10-10-10H63.473l9.654-139.998h33.746l12.412 179.998h-58.57l1.379-20zm97.904 60.002h-55.689c-5.521 0-10 4.478-10 10s4.479 10 10 10h55.689V306h-55.689c-5.521 0-10 4.478-10 10 0 5.523 4.479 10 10 10h55.689v20h-26.725c-5.521 0-10 4.478-10 10 0 5.523 4.479 10 10 10h26.725v19.999h-55.689c-5.521 0-10 4.478-10 10s4.479 10 10 10h55.689v19.998h-55.689c-5.521 0-10 4.478-10 10 0 5.523 4.479 10 10 10h55.689v20.002H20v-220h29.963l.037.002h79.998a.066.066 0 00.02 0l.039-.002h29.941v20.002zM492 465.999H179.998V175.566l94.809 68.537a10 10 0 0015.859-8.104v-60.433l94.807 68.536a9.995 9.995 0 0010.408.801 9.996 9.996 0 005.449-8.904v-60.433L492 241.109v224.89z"/><path d="M104.309 366h.236c5.523 0 10-4.477 10-10 0-5.522-4.477-10-10-10h-.236c-5.521 0-10 4.478-10 10s4.478 10 10 10zm191.689-60.002h-40.002c-5.523 0-10 4.478-10 10v39.998c0 5.522 4.477 10 10 10h40.002c5.522 0 10-4.478 10-10v-39.998c0-5.521-4.478-10-10-10zm-10 39.998h-20.002v-19.998h20.002v19.998zm80-29.998v39.998c0 5.522 4.479 10 10 10H416c5.523 0 10-4.478 10-10v-39.998c0-5.522-4.477-10-10-10h-40.002c-5.521 0-10 4.479-10 10zm20 10H406v19.998h-20.002v-19.998zm-64.308 99.999h-.236c-5.521 0-10 4.478-10 10 0 5.523 4.479 10 10 10h.236c5.523 0 10-4.477 10-10 0-5.522-4.477-10-10-10zm-28.967 0h-36.725c-5.523 0-10 4.478-10 10 0 5.523 4.477 10 10 10h36.725c5.521 0 10-4.477 10-10 0-5.522-4.479-10-10-10z"/></svg>