<svg width="34" height="33" viewBox="0 0 34 33" fill="none" xmlns="http://www.w3.org/2000/svg"><circle cx="17.083" cy="16.343" r="15.738" stroke="#fff" stroke-width="1.211"/><path d="M17.082 13.664a2.685 2.685 0 00-2.679 2.679 2.685 2.685 0 002.68 2.679 2.685 2.685 0 002.678-2.68 2.685 2.685 0 00-2.679-2.678zm8.035 2.679c0-1.11.01-2.21-.052-3.316-.062-1.287-.356-2.428-1.296-3.369-.943-.942-2.082-1.234-3.369-1.296-1.109-.062-2.208-.052-3.316-.052-1.11 0-2.208-.01-3.316.052-1.286.062-2.428.356-3.368 1.296-.943.943-1.234 2.082-1.296 3.369-.063 1.109-.053 2.208-.053 3.316 0 1.107-.01 2.208.053 3.316.062 1.286.355 2.428 1.296 3.368.942.943 2.082 1.234 3.368 1.296 1.11.063 2.209.053 3.316.053 1.11 0 2.209.01 3.316-.053 1.287-.062 2.428-.355 3.369-1.296.942-.943 1.234-2.082 1.296-3.368.064-1.108.052-2.207.052-3.316zm-8.035 4.122a4.116 4.116 0 01-4.122-4.122 4.116 4.116 0 014.122-4.122 4.116 4.116 0 014.122 4.122 4.116 4.116 0 01-4.122 4.122zm4.291-7.45a.962.962 0 110-1.926.961.961 0 110 1.925z" fill="#fff"/></svg>