<svg width="33" height="33" viewBox="0 0 33 33" fill="none" xmlns="http://www.w3.org/2000/svg"><path fill-rule="evenodd" clip-rule="evenodd" d="M14.787 13.903h2.248v1.12c.324-.644 1.154-1.223 2.401-1.223 2.392 0 2.96 1.282 2.96 3.634v4.356h-2.421v-3.82c0-1.34-.324-2.095-1.149-2.095-1.143 0-1.618.814-1.618 2.094v3.821h-2.421v-7.887zm-4.152 7.784h2.421V13.8h-2.42v7.887zm2.768-10.459a1.53 1.53 0 01-.456 1.09 1.568 1.568 0 01-2.202 0 1.543 1.543 0 01-.455-1.09c0-.41.164-.802.456-1.091a1.564 1.564 0 012.201 0c.292.289.456.681.456 1.091z" fill="#fff"/><circle cx="16.343" cy="16.343" r="15.738" stroke="#fff" stroke-width="1.211"/></svg>