<svg  width="51" height="24" viewBox="0 0 51 24" fill="none" xmlns="http://www.w3.org/2000/svg">
<path  d="M49 13.5C49.8284 13.5 50.5 12.8284 50.5 12C50.5 11.1716 49.8284 10.5 49 10.5L49 13.5ZM0.939339 10.9393C0.353554 11.5251 0.353554 12.4749 0.939339 13.0607L10.4853 22.6066C11.0711 23.1924 12.0208 23.1924 12.6066 22.6066C13.1924 22.0208 13.1924 21.0711 12.6066 20.4853L4.12132 12L12.6066 3.51472C13.1924 2.92893 13.1924 1.97918 12.6066 1.3934C12.0208 0.807608 11.0711 0.807608 10.4853 1.39339L0.939339 10.9393ZM49 10.5L2 10.5L2 13.5L49 13.5L49 10.5Z" fill="#000000"/>
</svg>
