<svg width="20" height="18" viewBox="0 0 20 18" fill="none" xmlns="http://www.w3.org/2000/svg">
<path d="M3.5 0.875C2.63805 0.875 1.8114 1.21741 1.2019 1.8269C0.59241 2.4364 0.25 3.26305 0.25 4.125V4.45163L10 9.702L19.75 4.45325V4.125C19.75 3.26305 19.4076 2.4364 18.7981 1.8269C18.1886 1.21741 17.362 0.875 16.5 0.875H3.5ZM19.75 6.29762L10.3851 11.34C10.2668 11.4037 10.1344 11.4371 10 11.4371C9.86557 11.4371 9.73324 11.4037 9.61487 11.34L0.25 6.29762V13.875C0.25 14.737 0.59241 15.5636 1.2019 16.1731C1.8114 16.7826 2.63805 17.125 3.5 17.125H16.5C17.362 17.125 18.1886 16.7826 18.7981 16.1731C19.4076 15.5636 19.75 14.737 19.75 13.875V6.29762Z" fill="#45D33C"/>
</svg>
