<svg width="18" height="18" viewBox="0 0 18 18" fill="none" xmlns="http://www.w3.org/2000/svg">
<path d="M13.5003 17.3338C10.0981 17.3293 6.83642 15.9758 4.43066 13.5701C2.0249 11.1643 0.671402 7.90268 0.666992 4.50042C0.666992 3.48376 1.07086 2.50873 1.78975 1.78984C2.50864 1.07096 3.48366 0.667087 4.50032 0.667087C4.71561 0.665448 4.93053 0.684986 5.14199 0.725421C5.34642 0.755671 5.54738 0.805912 5.74199 0.875421C5.87887 0.923445 6.00083 1.00637 6.09583 1.11598C6.19083 1.2256 6.25558 1.35811 6.28366 1.50042L7.42532 6.50042C7.4561 6.63614 7.45239 6.7774 7.41455 6.91132C7.3767 7.04524 7.30592 7.16755 7.20866 7.26709C7.10033 7.38375 7.09199 7.39209 6.06699 7.92542C6.88782 9.72613 8.32799 11.1722 10.1253 12.0004C10.667 10.9671 10.6753 10.9588 10.792 10.8504C10.8915 10.7532 11.0138 10.6824 11.1478 10.6445C11.2817 10.6067 11.4229 10.603 11.5587 10.6338L16.5587 11.7754C16.6964 11.8074 16.8238 11.8739 16.9287 11.9686C17.0337 12.0634 17.1128 12.1833 17.1587 12.3171C17.229 12.5149 17.282 12.7184 17.317 12.9254C17.3505 13.1349 17.3672 13.3466 17.367 13.5588C17.3516 14.5711 16.9364 15.5362 16.212 16.2435C15.4875 16.9507 14.5127 17.3427 13.5003 17.3338Z" fill="#45D33C"/>
</svg>
