<svg width="34" height="33" viewBox="0 0 34 33" fill="none" xmlns="http://www.w3.org/2000/svg">
<circle cx="17.083" cy="16.3428" r="15.7375" stroke="white" stroke-width="1.21057"/>
<path d="M17.0823 13.6636C15.6072 13.6636 14.4033 14.8675 14.4033 16.3426C14.4033 17.8178 15.6072 19.0216 17.0823 19.0216C18.5575 19.0216 19.7613 17.8178 19.7613 16.3426C19.7613 14.8675 18.5575 13.6636 17.0823 13.6636ZM25.1173 16.3426C25.1173 15.2332 25.1273 14.1339 25.065 13.0265C25.0027 11.7403 24.7093 10.5988 23.7687 9.65822C22.8262 8.71565 21.6866 8.42424 20.4004 8.36193C19.291 8.29963 18.1917 8.30968 17.0843 8.30968C15.9749 8.30968 14.8756 8.29963 13.7682 8.36193C12.482 8.42424 11.3405 8.71766 10.3999 9.65822C9.45735 10.6008 9.16593 11.7403 9.10363 13.0265C9.04133 14.1359 9.05138 15.2353 9.05138 16.3426C9.05138 17.45 9.04133 18.5513 9.10363 19.6587C9.16593 20.9449 9.45936 22.0865 10.3999 23.027C11.3425 23.9696 12.482 24.261 13.7682 24.3233C14.8776 24.3856 15.977 24.3756 17.0843 24.3756C18.1937 24.3756 19.293 24.3856 20.4004 24.3233C21.6866 24.261 22.8282 23.9676 23.7687 23.027C24.7113 22.0845 25.0027 20.9449 25.065 19.6587C25.1293 18.5513 25.1173 17.452 25.1173 16.3426ZM17.0823 20.4646C14.8013 20.4646 12.9603 18.6237 12.9603 16.3426C12.9603 14.0616 14.8013 12.2206 17.0823 12.2206C19.3634 12.2206 21.2043 14.0616 21.2043 16.3426C21.2043 18.6237 19.3634 20.4646 17.0823 20.4646ZM21.3731 13.0145C20.8405 13.0145 20.4104 12.5844 20.4104 12.0518C20.4104 11.5192 20.8405 11.0892 21.3731 11.0892C21.9057 11.0892 22.3358 11.5192 22.3358 12.0518C22.3359 12.1783 22.3111 12.3035 22.2628 12.4204C22.2145 12.5373 22.1436 12.6435 22.0542 12.7329C21.9648 12.8223 21.8586 12.8932 21.7417 12.9415C21.6248 12.9899 21.4996 13.0146 21.3731 13.0145Z" fill="white"/>
</svg>
