<svg width="33" height="33" viewBox="0 0 33 33" fill="none" xmlns="http://www.w3.org/2000/svg">
<path fill-rule="evenodd" clip-rule="evenodd" d="M14.7867 13.9028H17.0348V15.0226C17.3586 14.3786 18.189 13.7999 19.4365 13.7999C21.828 13.7999 22.3958 15.0819 22.3958 17.4341V21.7903H19.9746V17.9697C19.9746 16.6302 19.6508 15.8748 18.8264 15.8748C17.683 15.8748 17.2079 16.689 17.2079 17.9691V21.7903H14.7867V13.9028ZM10.6351 21.6874H13.0562V13.7999H10.6351V21.6874ZM13.403 11.2281C13.4031 11.431 13.3629 11.6319 13.2846 11.8192C13.2064 12.0064 13.0917 12.1762 12.9473 12.3188C12.6545 12.6097 12.2583 12.7725 11.8456 12.7715C11.4337 12.7713 11.0384 12.6088 10.7452 12.3194C10.6013 12.1764 10.487 12.0063 10.4089 11.8191C10.3308 11.6318 10.2904 11.431 10.29 11.2281C10.29 10.8183 10.4535 10.426 10.7458 10.1367C11.0387 9.84688 11.4342 9.68439 11.8462 9.68457C12.259 9.68457 12.6549 9.84739 12.9473 10.1367C13.239 10.426 13.403 10.8183 13.403 11.2281Z" fill="white"/>
<circle cx="16.3428" cy="16.3428" r="15.7375" stroke="white" stroke-width="1.21057"/>
</svg>
